<svg xmlns="http://www.w3.org/2000/svg" width="129" height="129" viewBox="0 0 129 129"><g id="Groupe_635" data-name="Groupe 635" transform="translate(-241.473 -5916.473)"><path id="Ellipse_1" data-name="Ellipse 1" d="M64.5,2A62.2,62.2,0,0,0,29.557,12.673a62.688,62.688,0,0,0-22.646,27.5,62.415,62.415,0,0,0,5.762,59.27,62.688,62.688,0,0,0,27.5,22.646,62.415,62.415,0,0,0,59.27-5.762,62.688,62.688,0,0,0,22.646-27.5,62.415,62.415,0,0,0-5.762-59.27,62.688,62.688,0,0,0-27.5-22.646A62.107,62.107,0,0,0,64.5,2m0-2A64.5,64.5,0,1,1,0,64.5,64.5,64.5,0,0,1,64.5,0Z" transform="translate(241.473 5916.473)" fill="#9f6449"></path><g id="Groupe_710" data-name="Groupe 710" transform="translate(-497.004 5893.07)"><path id="Trac&#xE9;_667" data-name="Trac&#xE9; 667" d="M33.747,0A33.747,33.747,0,0,1,67.493,33.747c-67.241.037-37.168-.49-67.493,0A33.747,33.747,0,0,1,33.747,0Z" transform="translate(837.516 125.086) rotate(180)" fill="#faf5f3"></path><path id="Trac&#xE9;_732" data-name="Trac&#xE9; 732" d="M1.595-4.1,28.282-37.039H1.913v-2.436h29.6v2.224L4.931-4.315H31.406V-1.88H1.595Zm50.62,2.489a15.548,15.548,0,0,1-7.148-1.641,18.478,18.478,0,0,1-5.56-4.289,19.179,19.179,0,0,1-3.6-6.089,20.182,20.182,0,0,1-1.271-7.042,19.543,19.543,0,0,1,1.35-7.2,20.127,20.127,0,0,1,3.707-6.089,17.739,17.739,0,0,1,5.586-4.21,15.841,15.841,0,0,1,6.989-1.562,15.346,15.346,0,0,1,7.148,1.668A18.12,18.12,0,0,1,64.95-33.7a20.192,20.192,0,0,1,3.574,6.116,19.679,19.679,0,0,1,1.271,6.91,19.684,19.684,0,0,1-1.35,7.254A19.784,19.784,0,0,1,64.738-7.36a18.025,18.025,0,0,1-5.56,4.183A15.673,15.673,0,0,1,52.215-1.615ZM37.336-20.677a18.1,18.1,0,0,0,1.085,6.222,16.806,16.806,0,0,0,3.071,5.3,15.213,15.213,0,0,0,4.713,3.68A13.143,13.143,0,0,0,52.215-4.1a12.969,12.969,0,0,0,6.116-1.43,15.231,15.231,0,0,0,4.686-3.786,17.408,17.408,0,0,0,3.018-5.321,17.825,17.825,0,0,0,1.059-6.036A17.715,17.715,0,0,0,65.982-26.9a17.214,17.214,0,0,0-3.1-5.3,15.213,15.213,0,0,0-4.713-3.68,13.028,13.028,0,0,0-5.957-1.377,13.127,13.127,0,0,0-6.142,1.43,14.829,14.829,0,0,0-4.686,3.786A17.711,17.711,0,0,0,38.4-26.713,17.825,17.825,0,0,0,37.336-20.677Zm53-24.41-1.853-.847,3.23-4.5h3.071Zm12.02,40.772V-1.88H77.314V-39.474h24.569v2.436H80.014v14.773H99.129v2.33H80.014v15.62Z" transform="translate(751 106)" fill="#9f6449"></path><path id="Trac&#xE9;_733" data-name="Trac&#xE9; 733" d="M1.265-8A7.487,7.487,0,0,1,1.1-9.38c0-1.456.93-2.79,4.205-4a.749.749,0,0,0,.283-.97.921.921,0,0,0-.768-.526c-4,1.537-5.216,3.558-5.216,5.5A11.133,11.133,0,0,0-.07-6.994l-.04-.04v.283a13.878,13.878,0,0,0-2.79,4,1.492,1.492,0,0,0,.243,1.375,1.055,1.055,0,0,0,.728.243,1.54,1.54,0,0,0,.647-.121C.941-2.263,1.709-3.678,1.709-5.174a7.106,7.106,0,0,0-.081-1.092A11.458,11.458,0,0,1,6.562-8.975a1.288,1.288,0,0,0,.607-.89c-.121-.364-.445-.768-.93-.607h.04A11.672,11.672,0,0,0,1.265-8ZM11.778-14.6c-.768-.121-1.86.081-3.477,2.709L9.918-17.1c.162-.364-.2-.809-.526-.97a1.3,1.3,0,0,0-.97.566L2.114,3.115C1.346,5.379.779,7.28.658,7.765a.77.77,0,0,0,.607.93.781.781,0,0,0,.849-.526l1.739-5.62C4.7-.08,5.793-3.072,6.8-5.457A2.063,2.063,0,0,0,8.341-4.164c2.183.081,4.731-4.731,5.095-7.561C13.4-13.625,12.3-14.515,11.778-14.6Zm.162,2.75C11.656-9.38,9.513-6.1,8.462-5.66a2.073,2.073,0,0,1-.526-1.375c0-2.467,2.992-6.146,3.6-6.025C11.7-13.1,12.061-13.059,11.939-11.846Zm16.983,1.375c-.93.89-2.426,2.426-3.356,3.316.485-1.658,1.253-3.963,2.183-6.591a1.209,1.209,0,0,0-.445-.93c-.2-.162-.607.04-.89.2a1.864,1.864,0,0,1-1.779.607,5.91,5.91,0,0,1-1.86-.526L23.018-15a6.418,6.418,0,0,0,.2-1.537A1.405,1.405,0,0,0,22.7-17.79a3.427,3.427,0,0,0-1.577-.283,4.112,4.112,0,0,0-2.1,1.658,1.265,1.265,0,0,0-.04.768,5.636,5.636,0,0,0,1.9,1.9A32.786,32.786,0,0,1,18-8.49a18.7,18.7,0,0,1-3.6,4.327,38.86,38.86,0,0,1,1.9-7.844.706.706,0,0,0-.445-.97.705.705,0,0,0-.89.364c-.849,2.507-2.1,6.55-2.1,8.532a2.253,2.253,0,0,0,.323,1.213,1.016,1.016,0,0,0,.849.4c2.224,0,6.308-6.389,8.168-10.513a7.858,7.858,0,0,0,2.3.647,3.535,3.535,0,0,0,1.132,0c-2.224,6.429-2.062,7.076-1.9,7.359a.737.737,0,0,0,.687.364c.323,0,.849,0,5.418-4.65a.857.857,0,0,0-.04-1.092.848.848,0,0,0-1.011.04ZM17.277-15.283c-.081-.364-.89-.445-1.253-.4a1.853,1.853,0,0,1-.283.445c0,.04-.081.162-.081.2l.04-.04a2.1,2.1,0,0,0-.121.2l.04-.04c-.283.526.485.526.93.485.243-.081.4-.2.728-.768Zm4.165-1.334a.479.479,0,0,1,.323.04,6.7,6.7,0,0,1-.364,1.456,3.159,3.159,0,0,1-.93-.849A2.56,2.56,0,0,1,21.442-16.617ZM35.755-9.784a.8.8,0,0,0-.728-.809c-.485,0-.647.243-2.183,2.3l-.283.364v-.04c-.768.93-2.386,2.83-3.356,3.8a44.656,44.656,0,0,1,1.9-7.8.712.712,0,0,0-.485-.97c-.364-.2-.768.121-.97.485-.768,2.507-1.981,6.51-1.981,8.41a2.358,2.358,0,0,0,.323,1.213,1.012,1.012,0,0,0,.89.364c1.011,0,2.709-1.82,5.095-4.933l.243-.364v.04l.162-.2a7.591,7.591,0,0,1,.97-1.132A.9.9,0,0,0,35.755-9.784Zm-3.6-5.54c-.081-.4-.849-.566-1.253-.485a.846.846,0,0,0-.526.526l-.121.243c-.364.768.526.809,1.051.647.323-.081.526-.283.849-.849ZM47-23.653a1.324,1.324,0,0,0,.607-.93,1.466,1.466,0,0,0-.849-.607c-2.143.607-4.529,1.253-6.712,1.9.89-2.83,1.739-5.5,2.669-8.289a1.608,1.608,0,0,0-.485-.93,1.019,1.019,0,0,0-.97.526s-.2.647-.4,1.253L39.475-26.4l-1.132,3.639L26.051-19.286a.976.976,0,0,0-.445.89.786.786,0,0,0,.809.526l11.362-3.154L35.917-15C31.348.567,31.388,3.438,31.712,3.923a1.014,1.014,0,0,0,.809.526c1.739,0,3.841-3.235,7.8-10.028.93-1.617,1.86-3.154,2.345-3.882a.468.468,0,0,0-.04-.687.924.924,0,0,0-1.213-.04,39.736,39.736,0,0,0-2.345,3.841c-1.5,2.507-4.529,7.359-6.106,8.976.364-3.073,3.235-13.667,6.55-24.18Z" transform="translate(781.014 129.4)" fill="#9f6449"></path></g></g></svg>